<mxfile host="Electron" modified="2024-04-14T06:36:25.568Z" agent="Mozilla/5.0 (Windows NT 10.0; Win64; x64) AppleWebKit/537.36 (KHTML, like Gecko) draw.io/24.1.0 Chrome/120.0.6099.109 Electron/28.1.0 Safari/537.36" etag="jWib1JQfGkBMh94b7s0g" version="24.1.0" type="device">
  <diagram name="Page-1" id="ad52d381-51e7-2e0d-a935-2d0ddd2fd229">
    <mxGraphModel dx="1219" dy="724" grid="1" gridSize="10" guides="1" tooltips="1" connect="1" arrows="1" fold="1" page="1" pageScale="1" pageWidth="1169" pageHeight="827" background="none" math="0" shadow="0">
      <root>
        <mxCell id="0" />
        <mxCell id="1" parent="0" />
        <mxCell id="9PcxYXo_8FLNhXGX4yDR-6" value="&lt;h1&gt;書籍資料&lt;/h1&gt;" style="rounded=0;whiteSpace=wrap;html=1;fillColor=#dae8fc;strokeColor=#6c8ebf;" parent="1" vertex="1">
          <mxGeometry x="220" y="190" width="120" height="60" as="geometry" />
        </mxCell>
        <mxCell id="9PcxYXo_8FLNhXGX4yDR-7" value="&lt;h2&gt;&lt;u&gt;編號&lt;/u&gt;&lt;/h2&gt;" style="ellipse;whiteSpace=wrap;html=1;" parent="1" vertex="1">
          <mxGeometry x="270" y="70" width="80" height="50" as="geometry" />
        </mxCell>
        <mxCell id="9PcxYXo_8FLNhXGX4yDR-8" value="&lt;h2&gt;&lt;span style=&quot;font-weight: normal;&quot;&gt;書名&lt;/span&gt;&lt;/h2&gt;" style="ellipse;whiteSpace=wrap;html=1;" parent="1" vertex="1">
          <mxGeometry x="130" y="90" width="80" height="50" as="geometry" />
        </mxCell>
        <mxCell id="9PcxYXo_8FLNhXGX4yDR-9" value="&lt;h2&gt;&lt;span style=&quot;font-weight: normal;&quot;&gt;作者&lt;/span&gt;&lt;/h2&gt;" style="ellipse;whiteSpace=wrap;html=1;" parent="1" vertex="1">
          <mxGeometry x="70" y="190" width="80" height="50" as="geometry" />
        </mxCell>
        <mxCell id="9PcxYXo_8FLNhXGX4yDR-10" value="&lt;h2&gt;&lt;span style=&quot;font-weight: normal;&quot;&gt;價格&lt;/span&gt;&lt;/h2&gt;" style="ellipse;whiteSpace=wrap;html=1;" parent="1" vertex="1">
          <mxGeometry x="150" y="290" width="80" height="50" as="geometry" />
        </mxCell>
        <mxCell id="9PcxYXo_8FLNhXGX4yDR-11" value="" style="endArrow=none;html=1;rounded=0;" parent="1" source="9PcxYXo_8FLNhXGX4yDR-10" target="9PcxYXo_8FLNhXGX4yDR-6" edge="1">
          <mxGeometry width="50" height="50" relative="1" as="geometry">
            <mxPoint x="500" y="300" as="sourcePoint" />
            <mxPoint x="550" y="250" as="targetPoint" />
            <Array as="points" />
          </mxGeometry>
        </mxCell>
        <mxCell id="9PcxYXo_8FLNhXGX4yDR-12" value="" style="endArrow=none;html=1;rounded=0;entryX=0;entryY=0.5;entryDx=0;entryDy=0;" parent="1" source="9PcxYXo_8FLNhXGX4yDR-9" target="9PcxYXo_8FLNhXGX4yDR-6" edge="1">
          <mxGeometry width="50" height="50" relative="1" as="geometry">
            <mxPoint x="500" y="300" as="sourcePoint" />
            <mxPoint x="550" y="250" as="targetPoint" />
            <Array as="points" />
          </mxGeometry>
        </mxCell>
        <mxCell id="9PcxYXo_8FLNhXGX4yDR-14" value="" style="endArrow=none;html=1;rounded=0;entryX=1;entryY=1;entryDx=0;entryDy=0;exitX=0.4;exitY=-0.017;exitDx=0;exitDy=0;exitPerimeter=0;" parent="1" source="9PcxYXo_8FLNhXGX4yDR-6" target="9PcxYXo_8FLNhXGX4yDR-8" edge="1">
          <mxGeometry width="50" height="50" relative="1" as="geometry">
            <mxPoint x="500" y="300" as="sourcePoint" />
            <mxPoint x="550" y="250" as="targetPoint" />
          </mxGeometry>
        </mxCell>
        <mxCell id="9PcxYXo_8FLNhXGX4yDR-15" value="" style="endArrow=none;html=1;rounded=0;" parent="1" source="9PcxYXo_8FLNhXGX4yDR-6" target="9PcxYXo_8FLNhXGX4yDR-7" edge="1">
          <mxGeometry width="50" height="50" relative="1" as="geometry">
            <mxPoint x="500" y="300" as="sourcePoint" />
            <mxPoint x="550" y="250" as="targetPoint" />
          </mxGeometry>
        </mxCell>
        <mxCell id="9PcxYXo_8FLNhXGX4yDR-16" value="&lt;h1&gt;訂購&lt;/h1&gt;" style="rhombus;whiteSpace=wrap;html=1;fillColor=#fff2cc;strokeColor=#d6b656;" parent="1" vertex="1">
          <mxGeometry x="400" y="185" width="110" height="70" as="geometry" />
        </mxCell>
        <mxCell id="9PcxYXo_8FLNhXGX4yDR-17" value="" style="endArrow=none;html=1;rounded=0;" parent="1" source="9PcxYXo_8FLNhXGX4yDR-6" target="9PcxYXo_8FLNhXGX4yDR-16" edge="1">
          <mxGeometry width="50" height="50" relative="1" as="geometry">
            <mxPoint x="500" y="300" as="sourcePoint" />
            <mxPoint x="550" y="250" as="targetPoint" />
          </mxGeometry>
        </mxCell>
        <mxCell id="9PcxYXo_8FLNhXGX4yDR-19" value="&lt;h1 style=&quot;&quot;&gt;&lt;font style=&quot;font-size: 16px;&quot;&gt;M&lt;/font&gt;&lt;/h1&gt;" style="edgeLabel;html=1;align=center;verticalAlign=bottom;resizable=0;points=[];fontSize=11;labelBackgroundColor=none;textShadow=0;fontColor=default;" parent="9PcxYXo_8FLNhXGX4yDR-17" vertex="1" connectable="0">
          <mxGeometry x="0.4267" y="3" relative="1" as="geometry">
            <mxPoint x="8" y="23" as="offset" />
          </mxGeometry>
        </mxCell>
        <mxCell id="9PcxYXo_8FLNhXGX4yDR-20" value="&lt;h1&gt;書局&lt;/h1&gt;" style="rounded=0;whiteSpace=wrap;html=1;fillColor=#dae8fc;strokeColor=#6c8ebf;" parent="1" vertex="1">
          <mxGeometry x="585" y="190" width="120" height="60" as="geometry" />
        </mxCell>
        <mxCell id="9PcxYXo_8FLNhXGX4yDR-24" value="&lt;h2&gt;&lt;span style=&quot;font-weight: normal;&quot;&gt;出版社&lt;/span&gt;&lt;/h2&gt;" style="ellipse;whiteSpace=wrap;html=1;" parent="1" vertex="1">
          <mxGeometry x="280" y="300" width="80" height="50" as="geometry" />
        </mxCell>
        <mxCell id="9PcxYXo_8FLNhXGX4yDR-21" value="" style="endArrow=none;html=1;rounded=0;entryX=0;entryY=0.5;entryDx=0;entryDy=0;exitX=1;exitY=0.5;exitDx=0;exitDy=0;" parent="1" source="9PcxYXo_8FLNhXGX4yDR-16" target="9PcxYXo_8FLNhXGX4yDR-20" edge="1">
          <mxGeometry width="50" height="50" relative="1" as="geometry">
            <mxPoint x="500" y="200" as="sourcePoint" />
            <mxPoint x="550" y="150" as="targetPoint" />
          </mxGeometry>
        </mxCell>
        <mxCell id="9PcxYXo_8FLNhXGX4yDR-25" value="" style="endArrow=none;html=1;rounded=0;" parent="1" source="9PcxYXo_8FLNhXGX4yDR-24" target="9PcxYXo_8FLNhXGX4yDR-6" edge="1">
          <mxGeometry width="50" height="50" relative="1" as="geometry">
            <mxPoint x="340" y="290" as="sourcePoint" />
            <mxPoint x="390" y="240" as="targetPoint" />
          </mxGeometry>
        </mxCell>
        <mxCell id="YDW3wuicVFt5JyDYn-ji-1" value="&lt;h1 style=&quot;&quot;&gt;&lt;font style=&quot;font-size: 16px;&quot;&gt;N&lt;/font&gt;&lt;/h1&gt;" style="edgeLabel;html=1;align=center;verticalAlign=bottom;resizable=0;points=[];fontSize=11;labelBackgroundColor=none;textShadow=0;fontColor=default;" parent="1" vertex="1" connectable="0">
          <mxGeometry x="520" y="240" as="geometry" />
        </mxCell>
        <mxCell id="YDW3wuicVFt5JyDYn-ji-2" value="&lt;h2&gt;&lt;u&gt;編號&lt;/u&gt;&lt;/h2&gt;" style="ellipse;whiteSpace=wrap;html=1;" parent="1" vertex="1">
          <mxGeometry x="520" y="70" width="80" height="50" as="geometry" />
        </mxCell>
        <mxCell id="YDW3wuicVFt5JyDYn-ji-3" value="&lt;h2&gt;&lt;span style=&quot;font-weight: normal;&quot;&gt;名稱&lt;/span&gt;&lt;/h2&gt;" style="ellipse;whiteSpace=wrap;html=1;" parent="1" vertex="1">
          <mxGeometry x="660" y="70" width="80" height="50" as="geometry" />
        </mxCell>
        <mxCell id="YDW3wuicVFt5JyDYn-ji-4" value="&lt;h2&gt;&lt;span style=&quot;font-weight: normal;&quot;&gt;排名&lt;/span&gt;&lt;/h2&gt;" style="ellipse;whiteSpace=wrap;html=1;" parent="1" vertex="1">
          <mxGeometry x="770" y="195" width="80" height="50" as="geometry" />
        </mxCell>
        <mxCell id="YDW3wuicVFt5JyDYn-ji-5" value="&lt;h2&gt;&lt;span style=&quot;font-weight: normal;&quot;&gt;座落城市&lt;/span&gt;&lt;/h2&gt;" style="ellipse;whiteSpace=wrap;html=1;" parent="1" vertex="1">
          <mxGeometry x="660" y="310" width="80" height="50" as="geometry" />
        </mxCell>
        <mxCell id="YDW3wuicVFt5JyDYn-ji-6" value="" style="endArrow=none;html=1;rounded=0;entryX=0.5;entryY=0;entryDx=0;entryDy=0;" parent="1" source="YDW3wuicVFt5JyDYn-ji-2" target="9PcxYXo_8FLNhXGX4yDR-20" edge="1">
          <mxGeometry width="50" height="50" relative="1" as="geometry">
            <mxPoint x="500" y="300" as="sourcePoint" />
            <mxPoint x="550" y="250" as="targetPoint" />
          </mxGeometry>
        </mxCell>
        <mxCell id="YDW3wuicVFt5JyDYn-ji-7" value="" style="endArrow=none;html=1;rounded=0;" parent="1" source="9PcxYXo_8FLNhXGX4yDR-20" edge="1">
          <mxGeometry width="50" height="50" relative="1" as="geometry">
            <mxPoint x="500" y="300" as="sourcePoint" />
            <mxPoint x="690" y="120" as="targetPoint" />
          </mxGeometry>
        </mxCell>
        <mxCell id="YDW3wuicVFt5JyDYn-ji-9" value="" style="endArrow=none;html=1;rounded=0;entryX=0;entryY=0.5;entryDx=0;entryDy=0;exitX=1;exitY=0.5;exitDx=0;exitDy=0;" parent="1" source="9PcxYXo_8FLNhXGX4yDR-20" target="YDW3wuicVFt5JyDYn-ji-4" edge="1">
          <mxGeometry width="50" height="50" relative="1" as="geometry">
            <mxPoint x="700" y="220" as="sourcePoint" />
            <mxPoint x="750" y="170" as="targetPoint" />
          </mxGeometry>
        </mxCell>
        <mxCell id="YDW3wuicVFt5JyDYn-ji-10" value="" style="endArrow=none;html=1;rounded=0;exitX=0.5;exitY=0;exitDx=0;exitDy=0;" parent="1" source="YDW3wuicVFt5JyDYn-ji-5" target="9PcxYXo_8FLNhXGX4yDR-20" edge="1">
          <mxGeometry width="50" height="50" relative="1" as="geometry">
            <mxPoint x="650" y="300" as="sourcePoint" />
            <mxPoint x="700" y="250" as="targetPoint" />
          </mxGeometry>
        </mxCell>
      </root>
    </mxGraphModel>
  </diagram>
</mxfile>
